# xmcd
#
# Track frame offsets: 
#        150
#        22768
#        37666
#        55143
#        73978
#        111329
#        133986
#        154565
#        168427
#        187694
#
# Disc length: 2694 seconds
#
# Revision: 0
# Processed by: cddbd v1.5.2PL0 Copyright (c) Steve Scherf et al.
# Submitted via: ExactAudioCopy v0.99pb3
#
DISCID=7a0a840a
DTITLE=Coco Robicheaux - Like I Said, Yeah, U Rite!  The Techneaux Swa
DTITLE=mp Sessions
DYEAR=2008
DGENRE=Blues
TTITLE0=Work of the Devil ~ Bayouself Mix
TTITLE1=Revelator
TTITLE2=Hot Sauce Boogie ~ Bloody Mary Mix
TTITLE3=The Moment ~ Parlour Remix
TTITLE4=Ten Commandments of the Blues
TTITLE5=If You Still Want Me ~ Wide Open Mix
TTITLE6=Home
TTITLE7=I'm a Musician
TTITLE8=Decision Blues ~ Squawkbox Mix
TTITLE9=Yeah, U Rite!
EXTD=
EXTT0=
EXTT1=
EXTT2=
EXTT3=
EXTT4=
EXTT5=
EXTT6=
EXTT7=
EXTT8=
EXTT9=
PLAYORDER=
